#!OML:ASF H:\Pregnant\Project 1\Capture day 1\Session 1\femalepreg.ASF
:FULLY-SPECIFIED
:DEGREES
1665
root 1.106 10.9533 19.9019 211.842 -75.4013 -174.391
lowerback 36.1129 2.04955 3.64034
upperback -1.14313 3.61958 -1.88629
thorax -19.6931 0.898906 -5.84924
lowerneck -55.1216 18.9422 6.76958
upperneck -0.112771 20.0446 -16.1393
head 8.82374 6.1073 -3.48694
rclavicle -3.18055e-014 2.5842e-014
rhumerus 27.2654 33.2101 -16.1495
rradius 70.0163
rwrist -6.7106
rhand -0.417495 -15.075
rfingers 7.12502
rthumb 205.19 -223.433
lclavicle -3.18055e-014 2.5842e-014
lhumerus 17.2482 -39.3566 45.2002
lradius 65.9708
lwrist 30.1802
lhand 162.376 180.236
lfingers 7.12502
lthumb 188.633 -509.961
rfemur -114.3 -22.4813 28.7389
rtibia 98.463
rfoot -16.6938 -7.58088
rtoes -17.2374
lfemur -104.086 23.8516 -19.0757
ltibia 96.2382
lfoot -16.9967 15.2751
ltoes -25.232
1666
root 1.09808 11.0452 19.8914 211.928 -75.4581 -174.513
lowerback 36.0795 2.08096 3.61952
upperback -1.21203 3.63993 -1.96879
thorax -19.7621 0.901053 -5.94657
lowerneck -54.7664 19.0126 6.7809
upperneck -0.340099 20.2112 -16.4246
head 8.78182 6.17995 -3.54763
rclavicle -7.15625e-015 -2.38542e-015
rhumerus 25.6058 33.809 -17.6284
rradius 69.5897
rwrist -6.65291
rhand -0.449 -15.4968
rfingers 7.12502
rthumb 205.16 -223.859
lclavicle -7.15625e-015 -2.38542e-015
lhumerus 16.3195 -38.5767 46.6979
lradius 64.4618
lwrist 31.0303
lhand 160.589 180.178
lfingers 7.12502
lthumb 186.908 -509.955
rfemur -113.401 -22.3643 28.5664
rtibia 97.6394
rfoot -16.6317 -7.77936
rtoes -17.2262
lfemur -103.161 23.5247 -18.8423
ltibia 95.2336
lfoot -16.7673 15.5255
ltoes -24.9327
1667
root 1.09028 11.138 19.8804 212.04 -75.5104 -174.695
lowerback 36.0676 2.11567 3.59162
upperback -1.27606 3.65914 -2.06101
thorax -19.8345 0.90231 -6.05132
lowerneck -54.4045 19.0751 6.78864
upperneck -0.565951 20.371 -16.7103
head 8.73993 6.25125 -3.6087
rclavicle 3.10104e-014 -3.65764e-014
rhumerus 23.8502 34.3337 -19.2211
rradius 69.1445
rwrist -6.6044
rhand -0.557196 -15.9116
rfingers 7.12502
rthumb 205.057 -224.288
lclavicle 3.10104e-014 -3.65764e-014
lhumerus 15.405 -37.7007 48.1986
lradius 62.9508
lwrist 31.9698
lhand 158.802 180.167
lfingers 7.12502
lthumb 185.183 -509.916
rfemur -112.458 -22.2466 28.3516
rtibia 96.8101
rfoot -16.5654 -7.99774
rtoes -17.2237
lfemur -102.187 23.1982 -18.6192
ltibia 94.2053
lfoot -16.5373 15.7695
ltoes -24.6534
1668
root 1.08253 11.2315 19.8692 212.17 -75.5604 -174.928
lowerback 36.0771 2.15255 3.56191
upperback -1.33618 3.67824 -2.16208
thorax -19.9109 0.902569 -6.166
lowerneck -54.0408 19.1264 6.78973
upperneck -0.782548 20.5213 -16.9907
head 8.6999 6.32027 -3.66827
rclavicle -5.1684e-014 9.14409e-015
rhumerus 21.9997 34.7783 -20.9175
rradius 68.6845
rwrist -6.55272
rhand -0.748262 -16.2993
rfingers 7.12502
rthumb 204.873 -224.701
lclavicle -5.1684e-014 9.14409e-015
lhumerus 14.504 -36.7261 49.7012
lradius 61.4415
lwrist 32.9563
lhand 157.046 180.194
lfingers 7.12502
lthumb 183.487 -509.855
rfemur -111.474 -22.1299 28.1002
rtibia 95.9743
rfoot -16.4947 -8.23125
rtoes -17.2266
lfemur -101.166 22.8702 -18.4033
ltibia 93.1541
lfoot -16.3048 16.0074
ltoes -24.4103
1669
root 1.07479 11.3254 19.858 212.314 -75.6112 -175.202
lowerback 36.1041 2.19025 3.53648
upperback -1.39293 3.69834 -2.27067
thorax -19.99 0.901838 -6.29286
lowerneck -53.6834 19.1625 6.77935
upperneck -0.982005 20.6593 -17.2594
head 8.6634 6.38564 -3.72418
rclavicle 5.1684e-014 -8.22969e-014
rhumerus 20.0592 35.1363 -22.7035
rradius 68.2128
rwrist -6.48528
rhand -1.02252 -16.6466
rfingers 7.12502
rthumb 204.611 -225.084
lclavicle 5.1684e-014 -8.22969e-014
lhumerus 13.618 -35.6505 51.2046
lradius 59.9384
lwrist 33.9527
lhand 155.341 180.252
lfingers 7.12502
lthumb 181.841 -509.777
rfemur -110.456 -22.0164 27.8198
rtibia 95.1326
rfoot -16.4196 -8.47538
rtoes -17.2295
lfemur -100.105 22.5377 -18.1923
ltibia 92.0829
lfoot -16.0689 16.2396
ltoes -24.2142
1670
root 1.06695 11.4196 19.847 212.46 -75.6645 -175.504
lowerback 36.1445 2.22772 3.51894
upperback -1.44683 3.72017 -2.3841
thorax -20.0706 0.900296 -6.43108
lowerneck -53.3326 19.1826 6.75756
upperneck -1.16146 20.7836 -17.5127
head 8.63067 6.447 -3.77554
rclavicle -3.18055e-015 -1.31198e-014
rhumerus 18.0398 35.4048 -24.5623
rradius 67.7335
rwrist -6.39383
rhand -1.37345 -16.9507
rfingers 7.12502
rthumb 204.274 -225.434
lclavicle -3.18055e-015 -1.31198e-014
lhumerus 12.7438 -34.4712 52.7086
lradius 58.4471
lwrist 34.9344
lhand 153.699 180.337
lfingers 7.12502
lthumb 180.255 -509.683
rfemur -109.406 -21.9064 27.5177
rtibia 94.2852
rfoot -16.3412 -8.72663
rtoes -17.2271
lfemur -99.0107 22.1999 -17.9824
ltibia 90.9955
lfoot -15.8323 16.4665
ltoes -24.0683
